<svg xmlns="http://www.w3.org/2000/svg" xmlns:xlink="http://www.w3.org/1999/xlink" width="500" zoomAndPan="magnify" viewBox="0 0 375 374.999991" height="500" preserveAspectRatio="xMidYMid meet" version="1.0"><rect x="-37.5" width="450" fill="#ffffff" y="-37.499999" height="449.999989" fill-opacity="1"/><rect x="-37.5" width="450" fill="#ffffff" y="-37.499999" height="449.999989" fill-opacity="1"/><path fill="#000000" d="M 103.347656 277.078125 L 106.523438 280.21875 L 106.84375 280.539062 C 116.722656 290.777344 116.617188 307.265625 106.523438 317.359375 C 96.429688 327.457031 79.949219 327.5625 69.714844 317.679688 L 69.398438 317.359375 L 66.222656 314.21875 L 57.574219 305.535156 C 47.375 295.332031 47.375 278.632812 57.574219 268.394531 C 67.773438 258.191406 84.503906 258.191406 94.703125 268.394531 Z M 278.464844 133.386719 L 281.535156 130.3125 L 285.066406 126.785156 L 317.429688 94.410156 C 327.628906 84.207031 327.628906 67.507812 317.429688 57.269531 C 307.195312 47.066406 290.5 47.066406 280.300781 57.269531 L 247.9375 89.644531 L 244.410156 93.171875 L 241.339844 96.246094 L 222.777344 114.816406 C 212.578125 125.019531 212.578125 141.71875 222.777344 151.957031 L 241.339844 170.527344 L 244.65625 173.808594 L 280.546875 209.714844 C 290.75 219.917969 307.441406 219.917969 317.675781 209.714844 C 327.875 199.511719 327.875 182.777344 317.675781 172.574219 L 281.785156 136.667969 Z M 59.058594 57.515625 L 59.058594 57.480469 C 69.257812 47.277344 85.984375 47.277344 96.183594 57.480469 L 317.183594 278.597656 C 327.417969 288.800781 327.417969 305.535156 317.183594 315.738281 C 306.980469 325.941406 290.289062 325.941406 280.054688 315.738281 L 59.058594 94.621094 C 48.859375 84.417969 48.859375 67.71875 59.058594 57.515625 Z M 58.738281 163.359375 C 68.9375 153.15625 85.632812 153.15625 95.867188 163.359375 L 121.03125 188.53125 L 175.484375 243.007812 L 211.375 278.914062 C 221.574219 289.117188 221.574219 305.851562 211.375 316.054688 C 201.140625 326.257812 184.449219 326.257812 174.25 316.054688 L 138.359375 280.148438 L 83.902344 225.671875 L 58.738281 200.5 C 48.539062 190.296875 48.539062 173.5625 58.738281 163.359375 Z M 58.738281 163.359375 " fill-opacity="1" fill-rule="evenodd"/></svg>