<svg width="197" height="52" viewBox="0 0 197 52" fill="none" xmlns="http://www.w3.org/2000/svg">
<path d="M76.4062 29.5352C76.4062 29.2305 76.3594 28.957 76.2656 28.7148C76.1797 28.4648 76.0156 28.2383 75.7734 28.0352C75.5312 27.8242 75.1914 27.6172 74.7539 27.4141C74.3164 27.2109 73.75 27 73.0547 26.7812C72.2812 26.5312 71.5469 26.25 70.8516 25.9375C70.1641 25.625 69.5547 25.2617 69.0234 24.8477C68.5 24.4258 68.0859 23.9375 67.7812 23.3828C67.4844 22.8281 67.3359 22.1836 67.3359 21.4492C67.3359 20.7383 67.4922 20.0938 67.8047 19.5156C68.1172 18.9297 68.5547 18.4297 69.1172 18.0156C69.6797 17.5938 70.3438 17.2695 71.1094 17.043C71.8828 16.8164 72.7305 16.7031 73.6523 16.7031C74.9102 16.7031 76.0078 16.9297 76.9453 17.3828C77.8828 17.8359 78.6094 18.457 79.125 19.2461C79.6484 20.0352 79.9102 20.9375 79.9102 21.9531H76.418C76.418 21.4531 76.3125 21.0156 76.1016 20.6406C75.8984 20.2578 75.5859 19.957 75.1641 19.7383C74.75 19.5195 74.2266 19.4102 73.5938 19.4102C72.9844 19.4102 72.4766 19.5039 72.0703 19.6914C71.6641 19.8711 71.3594 20.1172 71.1562 20.4297C70.9531 20.7344 70.8516 21.0781 70.8516 21.4609C70.8516 21.75 70.9219 22.0117 71.0625 22.2461C71.2109 22.4805 71.4297 22.6992 71.7188 22.9023C72.0078 23.1055 72.3633 23.2969 72.7852 23.4766C73.207 23.6562 73.6953 23.832 74.25 24.0039C75.1797 24.2852 75.9961 24.6016 76.6992 24.9531C77.4102 25.3047 78.0039 25.6992 78.4805 26.1367C78.957 26.5742 79.3164 27.0703 79.5586 27.625C79.8008 28.1797 79.9219 28.8086 79.9219 29.5117C79.9219 30.2539 79.7773 30.918 79.4883 31.5039C79.1992 32.0898 78.7812 32.5859 78.2344 32.9922C77.6875 33.3984 77.0352 33.707 76.2773 33.918C75.5195 34.1289 74.6719 34.2344 73.7344 34.2344C72.8906 34.2344 72.0586 34.125 71.2383 33.9062C70.418 33.6797 69.6719 33.3398 69 32.8867C68.3359 32.4336 67.8047 31.8555 67.4062 31.1523C67.0078 30.4492 66.8086 29.6172 66.8086 28.6562H70.3359C70.3359 29.1875 70.418 29.6367 70.582 30.0039C70.7461 30.3711 70.9766 30.668 71.2734 30.8945C71.5781 31.1211 71.9375 31.2852 72.3516 31.3867C72.7734 31.4883 73.2344 31.5391 73.7344 31.5391C74.3438 31.5391 74.8438 31.4531 75.2344 31.2812C75.6328 31.1094 75.9258 30.8711 76.1133 30.5664C76.3086 30.2617 76.4062 29.918 76.4062 29.5352ZM85.4766 15.9883V34H82.1016V15.9883H85.4766ZM93.4688 21.3203L87.9609 27.6016L85.0078 30.5898L83.7773 28.1523L86.1211 25.1758L89.4141 21.3203H93.4688ZM89.9648 34L86.2148 28.1406L88.5469 26.1016L93.8555 34H89.9648ZM98.4844 21.3203V34H95.0977V21.3203H98.4844ZM94.8867 18.0156C94.8867 17.5234 95.0586 17.1172 95.4023 16.7969C95.7461 16.4766 96.207 16.3164 96.7852 16.3164C97.3555 16.3164 97.8125 16.4766 98.1562 16.7969C98.5078 17.1172 98.6836 17.5234 98.6836 18.0156C98.6836 18.5078 98.5078 18.9141 98.1562 19.2344C97.8125 19.5547 97.3555 19.7148 96.7852 19.7148C96.207 19.7148 95.7461 19.5547 95.4023 19.2344C95.0586 18.9141 94.8867 18.5078 94.8867 18.0156ZM104.836 16V34H101.449V16H104.836ZM111.188 16V34H107.801V16H111.188ZM122.004 21.3203H125.062V33.5781C125.062 34.7344 124.805 35.7148 124.289 36.5195C123.781 37.332 123.07 37.9453 122.156 38.3594C121.242 38.7812 120.18 38.9922 118.969 38.9922C118.438 38.9922 117.875 38.9219 117.281 38.7812C116.695 38.6406 116.133 38.4219 115.594 38.125C115.062 37.8281 114.617 37.4531 114.258 37L115.746 35.0078C116.137 35.4609 116.59 35.8125 117.105 36.0625C117.621 36.3203 118.191 36.4492 118.816 36.4492C119.426 36.4492 119.941 36.3359 120.363 36.1094C120.785 35.8906 121.109 35.5664 121.336 35.1367C121.562 34.7148 121.676 34.2031 121.676 33.6016V24.25L122.004 21.3203ZM113.473 27.8125V27.5664C113.473 26.5977 113.59 25.7188 113.824 24.9297C114.066 24.1328 114.406 23.4492 114.844 22.8789C115.289 22.3086 115.828 21.8672 116.461 21.5547C117.094 21.2422 117.809 21.0859 118.605 21.0859C119.449 21.0859 120.156 21.2422 120.727 21.5547C121.297 21.8672 121.766 22.3125 122.133 22.8906C122.5 23.4609 122.785 24.1367 122.988 24.918C123.199 25.6914 123.363 26.5391 123.48 27.4609V28C123.363 28.8828 123.188 29.7031 122.953 30.4609C122.719 31.2188 122.41 31.8828 122.027 32.4531C121.645 33.0156 121.168 33.4531 120.598 33.7656C120.035 34.0781 119.363 34.2344 118.582 34.2344C117.801 34.2344 117.094 34.0742 116.461 33.7539C115.836 33.4336 115.301 32.9844 114.855 32.4062C114.41 31.8281 114.066 31.1484 113.824 30.3672C113.59 29.5859 113.473 28.7344 113.473 27.8125ZM116.848 27.5664V27.8125C116.848 28.3359 116.898 28.8242 117 29.2773C117.102 29.7305 117.258 30.1328 117.469 30.4844C117.688 30.8281 117.957 31.0977 118.277 31.293C118.605 31.4805 118.992 31.5742 119.438 31.5742C120.055 31.5742 120.559 31.4453 120.949 31.1875C121.34 30.9219 121.633 30.5586 121.828 30.0977C122.023 29.6367 122.137 29.1055 122.168 28.5039V26.9688C122.152 26.4766 122.086 26.0352 121.969 25.6445C121.852 25.2461 121.688 24.9062 121.477 24.625C121.266 24.3438 120.992 24.125 120.656 23.9688C120.32 23.8125 119.922 23.7344 119.461 23.7344C119.016 23.7344 118.629 23.8359 118.301 24.0391C117.98 24.2344 117.711 24.5039 117.492 24.8477C117.281 25.1914 117.121 25.5977 117.012 26.0664C116.902 26.5273 116.848 27.0273 116.848 27.5664ZM127.148 27.7891V27.543C127.148 26.6133 127.281 25.7578 127.547 24.9766C127.812 24.1875 128.199 23.5039 128.707 22.9258C129.215 22.3477 129.84 21.8984 130.582 21.5781C131.324 21.25 132.176 21.0859 133.137 21.0859C134.098 21.0859 134.953 21.25 135.703 21.5781C136.453 21.8984 137.082 22.3477 137.59 22.9258C138.105 23.5039 138.496 24.1875 138.762 24.9766C139.027 25.7578 139.16 26.6133 139.16 27.543V27.7891C139.16 28.7109 139.027 29.5664 138.762 30.3555C138.496 31.1367 138.105 31.8203 137.59 32.4062C137.082 32.9844 136.457 33.4336 135.715 33.7539C134.973 34.0742 134.121 34.2344 133.16 34.2344C132.199 34.2344 131.344 34.0742 130.594 33.7539C129.852 33.4336 129.223 32.9844 128.707 32.4062C128.199 31.8203 127.812 31.1367 127.547 30.3555C127.281 29.5664 127.148 28.7109 127.148 27.7891ZM130.523 27.543V27.7891C130.523 28.3203 130.57 28.8164 130.664 29.2773C130.758 29.7383 130.906 30.1445 131.109 30.4961C131.32 30.8398 131.594 31.1094 131.93 31.3047C132.266 31.5 132.676 31.5977 133.16 31.5977C133.629 31.5977 134.031 31.5 134.367 31.3047C134.703 31.1094 134.973 30.8398 135.176 30.4961C135.379 30.1445 135.527 29.7383 135.621 29.2773C135.723 28.8164 135.773 28.3203 135.773 27.7891V27.543C135.773 27.0273 135.723 26.543 135.621 26.0898C135.527 25.6289 135.375 25.2227 135.164 24.8711C134.961 24.5117 134.691 24.2305 134.355 24.0273C134.02 23.8242 133.613 23.7227 133.137 23.7227C132.66 23.7227 132.254 23.8242 131.918 24.0273C131.59 24.2305 131.32 24.5117 131.109 24.8711C130.906 25.2227 130.758 25.6289 130.664 26.0898C130.57 26.543 130.523 27.0273 130.523 27.543ZM144.609 24.0859V34H141.234V21.3203H144.41L144.609 24.0859ZM148.43 21.2383L148.371 24.3672C148.207 24.3438 148.008 24.3242 147.773 24.3086C147.547 24.2852 147.34 24.2734 147.152 24.2734C146.676 24.2734 146.262 24.3359 145.91 24.4609C145.566 24.5781 145.277 24.7539 145.043 24.9883C144.816 25.2227 144.645 25.5078 144.527 25.8438C144.418 26.1797 144.355 26.5625 144.34 26.9922L143.66 26.7812C143.66 25.9609 143.742 25.207 143.906 24.5195C144.07 23.8242 144.309 23.2188 144.621 22.7031C144.941 22.1875 145.332 21.7891 145.793 21.5078C146.254 21.2266 146.781 21.0859 147.375 21.0859C147.562 21.0859 147.754 21.1016 147.949 21.1328C148.145 21.1562 148.305 21.1914 148.43 21.2383ZM153.586 21.3203V34H150.199V21.3203H153.586ZM149.988 18.0156C149.988 17.5234 150.16 17.1172 150.504 16.7969C150.848 16.4766 151.309 16.3164 151.887 16.3164C152.457 16.3164 152.914 16.4766 153.258 16.7969C153.609 17.1172 153.785 17.5234 153.785 18.0156C153.785 18.5078 153.609 18.9141 153.258 19.2344C152.914 19.5547 152.457 19.7148 151.887 19.7148C151.309 19.7148 150.848 19.5547 150.504 19.2344C150.16 18.9141 149.988 18.5078 149.988 18.0156ZM162.586 21.3203V23.7109H155.203V21.3203H162.586ZM157.031 18.1914H160.406V30.1797C160.406 30.5469 160.453 30.8281 160.547 31.0234C160.648 31.2188 160.797 31.3555 160.992 31.4336C161.188 31.5039 161.434 31.5391 161.73 31.5391C161.941 31.5391 162.129 31.5312 162.293 31.5156C162.465 31.4922 162.609 31.4688 162.727 31.4453L162.738 33.9297C162.449 34.0234 162.137 34.0977 161.801 34.1523C161.465 34.207 161.094 34.2344 160.688 34.2344C159.945 34.2344 159.297 34.1133 158.742 33.8711C158.195 33.6211 157.773 33.2227 157.477 32.6758C157.18 32.1289 157.031 31.4102 157.031 30.5195V18.1914ZM167.801 16V34H164.426V16H167.801ZM167.32 27.2148H166.395C166.402 26.332 166.52 25.5195 166.746 24.7773C166.973 24.0273 167.297 23.3789 167.719 22.832C168.141 22.2773 168.645 21.8477 169.23 21.543C169.824 21.2383 170.48 21.0859 171.199 21.0859C171.824 21.0859 172.391 21.1758 172.898 21.3555C173.414 21.5273 173.855 21.8086 174.223 22.1992C174.598 22.582 174.887 23.0859 175.09 23.7109C175.293 24.3359 175.395 25.0938 175.395 25.9844V34H171.996V25.9609C171.996 25.3984 171.914 24.957 171.75 24.6367C171.594 24.3086 171.363 24.0781 171.059 23.9453C170.762 23.8047 170.395 23.7344 169.957 23.7344C169.473 23.7344 169.059 23.8242 168.715 24.0039C168.379 24.1836 168.109 24.4336 167.906 24.7539C167.703 25.0664 167.555 25.4336 167.461 25.8555C167.367 26.2773 167.32 26.7305 167.32 27.2148ZM181.336 23.9453V34H177.949V21.3203H181.125L181.336 23.9453ZM180.867 27.2148H179.93C179.93 26.332 180.035 25.5195 180.246 24.7773C180.465 24.0273 180.781 23.3789 181.195 22.832C181.617 22.2773 182.137 21.8477 182.754 21.543C183.371 21.2383 184.086 21.0859 184.898 21.0859C185.461 21.0859 185.977 21.1719 186.445 21.3438C186.914 21.5078 187.316 21.7695 187.652 22.1289C187.996 22.4805 188.262 22.9414 188.449 23.5117C188.637 24.0742 188.73 24.75 188.73 25.5391V34H185.355V25.9141C185.355 25.3359 185.277 24.8906 185.121 24.5781C184.965 24.2656 184.742 24.0469 184.453 23.9219C184.172 23.7969 183.832 23.7344 183.434 23.7344C182.996 23.7344 182.613 23.8242 182.285 24.0039C181.965 24.1836 181.699 24.4336 181.488 24.7539C181.277 25.0664 181.121 25.4336 181.02 25.8555C180.918 26.2773 180.867 26.7305 180.867 27.2148ZM188.414 26.8281L187.207 26.9805C187.207 26.1523 187.309 25.3828 187.512 24.6719C187.723 23.9609 188.031 23.3359 188.438 22.7969C188.852 22.2578 189.363 21.8398 189.973 21.543C190.582 21.2383 191.285 21.0859 192.082 21.0859C192.691 21.0859 193.246 21.1758 193.746 21.3555C194.246 21.5273 194.672 21.8047 195.023 22.1875C195.383 22.5625 195.656 23.0547 195.844 23.6641C196.039 24.2734 196.137 25.0195 196.137 25.9023V34H192.75V25.9023C192.75 25.3164 192.672 24.8711 192.516 24.5664C192.367 24.2539 192.148 24.0391 191.859 23.9219C191.578 23.7969 191.242 23.7344 190.852 23.7344C190.445 23.7344 190.09 23.8164 189.785 23.9805C189.48 24.1367 189.227 24.3555 189.023 24.6367C188.82 24.918 188.668 25.2461 188.566 25.6211C188.465 25.9883 188.414 26.3906 188.414 26.8281Z" fill="#1D1D1D"/>
<path d="M29.3428 10.65L46.1412 0.780273V9.36441L29.3428 10.65Z" fill="#B8E8F2"/>
<path d="M29.3428 10.6501L49.7228 3.09448V9.2157L29.3428 10.6501Z" fill="#88CFE5"/>
<path d="M29.3432 10.6501L7.51074 0V8.34957L29.3432 10.6501Z" fill="#B8E8F2"/>
<path d="M29.3427 10.65L2.90918 1.92603V7.81268L29.3427 10.65Z" fill="#88CFE5"/>
<path d="M29.3791 51.8476L0.0315758 46.1685L0 4.96191L29.3475 10.6456L29.3791 51.8476Z" fill="#21B573"/>
<path d="M58.7941 34.0297C58.7941 41.3192 53.0743 47.1968 45.9968 48.5772L29.3473 51.8159L29.3428 10.65L44.8601 7.63224C51.7662 6.28801 57.3777 9.84256 57.3777 16.9607C57.3777 20.3709 56.074 23.33 53.9269 25.6891C56.8679 27.0514 58.7896 29.8527 58.7941 34.0297ZM38.4051 17.7095V24.999L44.8601 23.7405C46.899 23.3435 48.3154 21.5392 48.3154 19.4236C48.3154 17.308 46.9576 16.045 44.8601 16.4509L38.4051 17.7095ZM49.7318 35.0852C49.7318 32.7937 48.2613 31.4315 45.9923 31.8735L38.4051 33.3486V41.229L45.9923 39.754C48.2613 39.3164 49.7318 37.3813 49.7318 35.0852Z" fill="#21B573"/>
</svg>
