<svg xmlns="http://www.w3.org/2000/svg" xmlns:xlink="http://www.w3.org/1999/xlink" width="500" zoomAndPan="magnify" viewBox="0 0 375 374.999991" height="500" preserveAspectRatio="xMidYMid meet" version="1.0"><defs><g/><clipPath id="1d0e174de8"><path d="M 61.128906 168.355469 L 99.378906 168.355469 L 99.378906 206.605469 L 61.128906 206.605469 Z M 61.128906 168.355469 " clip-rule="nonzero"/></clipPath></defs><g clip-path="url(#1d0e174de8)"><path fill="#ffffff" d="M 68.765625 199.722656 L 69.199219 200.152344 L 69.242188 200.195312 C 70.589844 201.589844 70.574219 203.839844 69.199219 205.214844 C 67.820312 206.59375 65.574219 206.605469 64.179688 205.257812 L 64.136719 205.214844 L 63.703125 204.785156 L 62.523438 203.601562 C 61.132812 202.210938 61.132812 199.933594 62.523438 198.539062 C 63.914062 197.144531 66.195312 197.144531 67.585938 198.539062 Z M 92.640625 180.128906 L 93.058594 179.707031 L 93.539062 179.226562 L 97.949219 174.8125 C 99.339844 173.421875 99.339844 171.144531 97.949219 169.746094 C 96.554688 168.355469 94.28125 168.355469 92.890625 169.746094 L 88.476562 174.164062 L 85.046875 177.59375 C 83.65625 178.988281 83.65625 181.265625 85.046875 182.660156 L 87.578125 185.191406 L 88.03125 185.640625 L 92.921875 190.535156 C 94.3125 191.925781 96.589844 191.925781 97.984375 190.535156 C 99.375 189.144531 99.375 186.863281 97.984375 185.472656 L 93.089844 180.574219 Z M 62.726562 169.78125 L 62.726562 169.777344 C 64.117188 168.386719 66.398438 168.386719 67.789062 169.777344 L 97.917969 199.929688 C 99.3125 201.320312 99.3125 203.601562 97.917969 204.992188 C 96.527344 206.386719 94.25 206.386719 92.855469 204.992188 L 62.726562 174.839844 C 61.335938 173.449219 61.335938 171.171875 62.726562 169.78125 Z M 62.683594 184.214844 C 64.074219 182.824219 66.351562 182.824219 67.746094 184.214844 L 71.175781 187.648438 L 78.601562 195.078125 L 83.492188 199.972656 C 84.882812 201.363281 84.882812 203.644531 83.492188 205.035156 C 82.097656 206.429688 79.820312 206.429688 78.429688 205.035156 L 73.539062 200.140625 L 66.113281 192.710938 L 62.683594 189.28125 C 61.292969 187.886719 61.292969 185.605469 62.683594 184.214844 Z M 62.683594 184.214844 " fill-opacity="1" fill-rule="evenodd"/></g><g fill="#ffffff" fill-opacity="1"><g transform="translate(108.210247, 197.782165)"><g><path d="M 12.203125 0.375 C 9.960938 0.375 8.039062 -0.101562 6.4375 -1.0625 C 4.832031 -2.019531 3.59375 -3.359375 2.71875 -5.078125 C 1.851562 -6.804688 1.421875 -8.800781 1.421875 -11.0625 C 1.421875 -13.320312 1.851562 -15.316406 2.71875 -17.046875 C 3.59375 -18.773438 4.832031 -20.125 6.4375 -21.09375 C 8.039062 -22.070312 9.960938 -22.5625 12.203125 -22.5625 C 14.859375 -22.5625 17.035156 -21.898438 18.734375 -20.578125 C 20.441406 -19.253906 21.503906 -17.398438 21.921875 -15.015625 L 17.453125 -15.015625 C 17.179688 -16.222656 16.597656 -17.171875 15.703125 -17.859375 C 14.804688 -18.546875 13.617188 -18.890625 12.140625 -18.890625 C 10.085938 -18.890625 8.476562 -18.191406 7.3125 -16.796875 C 6.15625 -15.398438 5.578125 -13.488281 5.578125 -11.0625 C 5.578125 -8.632812 6.15625 -6.726562 7.3125 -5.34375 C 8.476562 -3.957031 10.085938 -3.265625 12.140625 -3.265625 C 13.617188 -3.265625 14.804688 -3.585938 15.703125 -4.234375 C 16.597656 -4.878906 17.179688 -5.769531 17.453125 -6.90625 L 21.921875 -6.90625 C 21.503906 -4.625 20.441406 -2.835938 18.734375 -1.546875 C 17.035156 -0.265625 14.859375 0.375 12.203125 0.375 Z M 12.203125 0.375 "/></g></g></g><g fill="#ffffff" fill-opacity="1"><g transform="translate(136.476422, 197.782165)"><g><path d="M 2.15625 0 L 2.15625 -22.1875 L 16.640625 -22.1875 L 16.640625 -18.921875 L 6.203125 -18.921875 L 6.203125 -12.828125 L 15.6875 -12.828125 L 15.6875 -9.671875 L 6.203125 -9.671875 L 6.203125 -3.265625 L 16.640625 -3.265625 L 16.640625 0 Z M 2.15625 0 "/></g></g></g><g fill="#ffffff" fill-opacity="1"><g transform="translate(159.704302, 197.782165)"><g><path d="M 2.15625 0 L 2.15625 -22.1875 L 10.296875 -22.1875 C 12.066406 -22.1875 13.53125 -21.882812 14.6875 -21.28125 C 15.84375 -20.675781 16.703125 -19.859375 17.265625 -18.828125 C 17.835938 -17.804688 18.125 -16.675781 18.125 -15.4375 C 18.125 -14.082031 17.769531 -12.84375 17.0625 -11.71875 C 16.351562 -10.601562 15.25 -9.789062 13.75 -9.28125 L 18.34375 0 L 13.6875 0 L 9.5625 -8.75 L 6.203125 -8.75 L 6.203125 0 Z M 6.203125 -11.71875 L 10.046875 -11.71875 C 11.398438 -11.71875 12.390625 -12.046875 13.015625 -12.703125 C 13.648438 -13.359375 13.96875 -14.226562 13.96875 -15.3125 C 13.96875 -16.363281 13.65625 -17.207031 13.03125 -17.84375 C 12.414062 -18.476562 11.410156 -18.796875 10.015625 -18.796875 L 6.203125 -18.796875 Z M 6.203125 -11.71875 "/></g></g></g><g fill="#ffffff" fill-opacity="1"><g transform="translate(184.358119, 197.782165)"><g><path d="M 7.3125 0 L 7.3125 -18.921875 L 0.859375 -18.921875 L 0.859375 -22.1875 L 17.875 -22.1875 L 17.875 -18.921875 L 11.375 -18.921875 L 11.375 0 Z M 7.3125 0 "/></g></g></g><g fill="#ffffff" fill-opacity="1"><g transform="translate(207.997926, 197.782165)"><g><path d="M 2.15625 0 L 2.15625 -22.1875 L 6.203125 -22.1875 L 6.203125 0 Z M 2.15625 0 "/></g></g></g><g fill="#ffffff" fill-opacity="1"><g transform="translate(221.275944, 197.782165)"><g><path d="M 9.734375 0.375 C 8.097656 0.375 6.65625 0.0976562 5.40625 -0.453125 C 4.164062 -1.015625 3.1875 -1.816406 2.46875 -2.859375 C 1.75 -3.910156 1.378906 -5.1875 1.359375 -6.6875 L 5.640625 -6.6875 C 5.679688 -5.65625 6.054688 -4.785156 6.765625 -4.078125 C 7.472656 -3.367188 8.453125 -3.015625 9.703125 -3.015625 C 10.773438 -3.015625 11.628906 -3.269531 12.265625 -3.78125 C 12.898438 -4.300781 13.21875 -4.992188 13.21875 -5.859375 C 13.21875 -6.765625 12.9375 -7.472656 12.375 -7.984375 C 11.8125 -8.492188 11.066406 -8.90625 10.140625 -9.21875 C 9.210938 -9.539062 8.21875 -9.878906 7.15625 -10.234375 C 5.445312 -10.828125 4.144531 -11.585938 3.25 -12.515625 C 2.351562 -13.441406 1.90625 -14.675781 1.90625 -16.21875 C 1.882812 -17.53125 2.191406 -18.65625 2.828125 -19.59375 C 3.472656 -20.539062 4.351562 -21.269531 5.46875 -21.78125 C 6.59375 -22.300781 7.882812 -22.5625 9.34375 -22.5625 C 10.820312 -22.5625 12.125 -22.296875 13.25 -21.765625 C 14.382812 -21.242188 15.273438 -20.503906 15.921875 -19.546875 C 16.566406 -18.597656 16.910156 -17.46875 16.953125 -16.15625 L 12.609375 -16.15625 C 12.585938 -16.9375 12.285156 -17.628906 11.703125 -18.234375 C 11.128906 -18.835938 10.320312 -19.140625 9.28125 -19.140625 C 8.394531 -19.160156 7.648438 -18.941406 7.046875 -18.484375 C 6.441406 -18.035156 6.140625 -17.378906 6.140625 -16.515625 C 6.140625 -15.773438 6.375 -15.1875 6.84375 -14.75 C 7.3125 -14.3125 7.945312 -13.945312 8.75 -13.65625 C 9.550781 -13.363281 10.46875 -13.046875 11.5 -12.703125 C 12.601562 -12.328125 13.609375 -11.882812 14.515625 -11.375 C 15.421875 -10.863281 16.144531 -10.191406 16.6875 -9.359375 C 17.238281 -8.523438 17.515625 -7.453125 17.515625 -6.140625 C 17.515625 -4.984375 17.21875 -3.90625 16.625 -2.90625 C 16.039062 -1.914062 15.164062 -1.117188 14 -0.515625 C 12.84375 0.078125 11.421875 0.375 9.734375 0.375 Z M 9.734375 0.375 "/></g></g></g><g fill="#ffffff" fill-opacity="1"><g transform="translate(245.105883, 197.782165)"><g><path d="M 10.703125 0.375 C 9.078125 0.375 7.609375 0.0546875 6.296875 -0.578125 C 4.992188 -1.222656 3.957031 -2.203125 3.1875 -3.515625 C 2.414062 -4.828125 2.03125 -6.488281 2.03125 -8.5 L 2.03125 -22.1875 L 6.078125 -22.1875 L 6.078125 -8.453125 C 6.078125 -6.722656 6.492188 -5.4375 7.328125 -4.59375 C 8.171875 -3.75 9.332031 -3.328125 10.8125 -3.328125 C 12.257812 -3.328125 13.40625 -3.75 14.25 -4.59375 C 15.101562 -5.4375 15.53125 -6.722656 15.53125 -8.453125 L 15.53125 -22.1875 L 19.578125 -22.1875 L 19.578125 -8.5 C 19.578125 -6.488281 19.175781 -4.828125 18.375 -3.515625 C 17.570312 -2.203125 16.5 -1.222656 15.15625 -0.578125 C 13.820312 0.0546875 12.335938 0.375 10.703125 0.375 Z M 10.703125 0.375 "/></g></g></g><g fill="#ffffff" fill-opacity="1"><g transform="translate(271.597569, 197.782165)"><g><path d="M 2.15625 0 L 2.15625 -22.1875 L 10.296875 -22.1875 C 12.066406 -22.1875 13.53125 -21.882812 14.6875 -21.28125 C 15.84375 -20.675781 16.703125 -19.859375 17.265625 -18.828125 C 17.835938 -17.804688 18.125 -16.675781 18.125 -15.4375 C 18.125 -14.082031 17.769531 -12.84375 17.0625 -11.71875 C 16.351562 -10.601562 15.25 -9.789062 13.75 -9.28125 L 18.34375 0 L 13.6875 0 L 9.5625 -8.75 L 6.203125 -8.75 L 6.203125 0 Z M 6.203125 -11.71875 L 10.046875 -11.71875 C 11.398438 -11.71875 12.390625 -12.046875 13.015625 -12.703125 C 13.648438 -13.359375 13.96875 -14.226562 13.96875 -15.3125 C 13.96875 -16.363281 13.65625 -17.207031 13.03125 -17.84375 C 12.414062 -18.476562 11.410156 -18.796875 10.015625 -18.796875 L 6.203125 -18.796875 Z M 6.203125 -11.71875 "/></g></g></g><g fill="#ffffff" fill-opacity="1"><g transform="translate(296.25138, 197.782165)"><g><path d="M 2.15625 0 L 2.15625 -22.1875 L 16.640625 -22.1875 L 16.640625 -18.921875 L 6.203125 -18.921875 L 6.203125 -12.828125 L 15.6875 -12.828125 L 15.6875 -9.671875 L 6.203125 -9.671875 L 6.203125 -3.265625 L 16.640625 -3.265625 L 16.640625 0 Z M 2.15625 0 "/></g></g></g></svg>